<?xml version="1.0" encoding="UTF-8"?>
<svg version="1.1" xmlns="http://www.w3.org/2000/svg" width="306" height="117">
<path d="M0 0 C100.98 0 201.96 0 306 0 C306 38.61 306 77.22 306 117 C205.02 117 104.04 117 0 117 C0 78.39 0 39.78 0 0 Z " fill="#FCFBFB" transform="translate(0,0)"/>
<path d="M0 0 C4.29 0 8.58 0 13 0 C13 10.89 13 21.78 13 33 C13.66 33 14.32 33 15 33 C15.11408203 32.13866455 15.22816406 31.2773291 15.34570312 30.38989258 C16.01850067 26.90414856 17.07567766 24.02229749 18.46875 20.76171875 C18.95730469 19.61251953 19.44585937 18.46332031 19.94921875 17.27929688 C20.46097656 16.09400391 20.97273438 14.90871094 21.5 13.6875 C22.26763672 11.88055664 22.26763672 11.88055664 23.05078125 10.03710938 C26.85040794 1.14959206 26.85040794 1.14959206 28 0 C30.01964199 -0.07244053 32.04167124 -0.08377188 34.0625 -0.0625 C35.71958984 -0.04896484 35.71958984 -0.04896484 37.41015625 -0.03515625 C38.26480469 -0.02355469 39.11945313 -0.01195313 40 0 C39.31168502 5.88464999 38.40628721 11.69840009 37.37109375 17.53125 C37.21713638 18.40777222 37.06317902 19.28429443 36.90455627 20.18737793 C36.41737548 22.95857922 35.92748324 25.72929299 35.4375 28.5 C35.10463766 30.39059331 34.77195361 32.28121802 34.43945312 34.171875 C33.62836272 38.78161555 32.81484196 43.39092118 32 48 C29.36 48 26.72 48 24 48 C25.60917667 36.58754966 27.81020077 25.3139627 30 14 C25.38 25.22 20.76 36.44 16 48 C13.03 48 10.06 48 7 48 C6.67 37.77 6.34 27.54 6 17 C5.67 17 5.34 17 5 17 C3.35 27.23 1.7 37.46 0 48 C-2.64 48 -5.28 48 -8 48 C-7.42656836 39.68471507 -6.13437682 31.61767531 -4.5625 23.4375 C-4.34529297 22.28314453 -4.12808594 21.12878906 -3.90429688 19.93945312 C-2.64717669 13.28388893 -1.34032257 6.63927229 0 0 Z " fill="#040404" transform="translate(32,32)"/>
<path d="M0 0 C1.98 0 3.96 0 6 0 C6 0.99 6 1.98 6 3 C10.62 2.67 15.24 2.34 20 2 C20 32.36 20 62.72 20 94 C17.23547967 95.38226016 14.9538637 95.09525387 11.875 95.0625 C10.77929688 95.05347656 9.68359375 95.04445313 8.5546875 95.03515625 C7.29011719 95.01775391 7.29011719 95.01775391 6 95 C6 95.66 6 96.32 6 97 C3.6498281 97.7047491 1.29658167 98.3887943 -1.0625 99.0625 C-1.71927734 99.26166016 -2.37605469 99.46082031 -3.05273438 99.66601562 C-9.91635737 101.59323982 -15.61993829 100.19934179 -22.4375 98.4375 C-23.48808594 98.16808594 -24.53867188 97.89867188 -25.62109375 97.62109375 C-26.40613281 97.41613281 -27.19117188 97.21117188 -28 97 C-28 96.01 -28 95.02 -28 94 C-31.63 93.67 -35.26 93.34 -39 93 C-39.33 94.65 -39.66 96.3 -40 98 C-53.56154406 101.60961398 -53.56154406 101.60961398 -60 100 C-61.6041045 99.66636762 -63.20827417 99.33304847 -64.8125 99 C-67.09152203 98.49790909 -68.90974935 98.04512533 -71 97 C-71 93.04 -71 89.08 -71 85 C-59.4763885 81.65011294 -51.49120205 82.21987047 -40 85 C-39.67 86.32 -39.34 87.64 -39 89 C-40.19625 88.979375 -41.3925 88.95875 -42.625 88.9375 C-46.18004869 88.93117429 -49.50555624 89.30111125 -53 90 C-53 92.64 -53 95.28 -53 98 C-49.37 97.34 -45.74 96.68 -42 96 C-42 95.34 -42 94.68 -42 94 C-43.32 93.67 -44.64 93.34 -46 93 C-46 92.34 -46 91.68 -46 91 C-37.42 91 -28.84 91 -20 91 C-20 91.66 -20 92.32 -20 93 C-21.98 93.495 -21.98 93.495 -24 94 C-24 94.66 -24 95.32 -24 96 C-20.37 96.66 -16.74 97.32 -13 98 C-13 95.36 -13 92.72 -13 90 C-19.93 89.505 -19.93 89.505 -27 89 C-27 87.68 -27 86.36 -27 85 C-14.86410429 81.84879369 -5.52147827 80.23926086 6 86 C6 88.31 6 90.62 6 93 C9.63 93 13.26 93 17 93 C17 63.96 17 34.92 17 5 C13.37 5 9.74 5 6 5 C6 6.98 6 8.96 6 11 C4.68 10.67 3.36 10.34 2 10 C2.33 7.03 2.66 4.06 3 1 C2.01 0.67 1.02 0.34 0 0 Z " fill="#FE2D2D" transform="translate(278,11)"/>
<path d="M0 0 C3.3 0 6.6 0 10 0 C11.87332443 10.40292927 13.42292523 20.81721796 14.6875 31.3125 C14.81874268 32.39136475 14.94998535 33.47022949 15.08520508 34.58178711 C15.61530336 39.08744471 16.07214748 43.45777912 16 48 C13.36 48 10.72 48 8 48 C7.505 43.05 7.505 43.05 7 38 C1.39 38 -4.22 38 -10 38 C-10.66 39.98 -11.32 41.96 -12 44 C-12.66 45.32 -13.32 46.64 -14 48 C-16.97 48 -19.94 48 -23 48 C-15.90352529 31.7043914 -8.03513381 15.84702175 0 0 Z " fill="#060606" transform="translate(130,32)"/>
<path d="M0 0 C0 1.32 0 2.64 0 4 C-0.99 4 -1.98 4 -3 4 C-3 3.34 -3 2.68 -3 2 C-6.96 2.99 -10.92 3.98 -15 5 C-15.33 7.64 -15.66 10.28 -16 13 C-14.1838018 12.57811541 -12.37205927 12.13700835 -10.5625 11.6875 C-9.55316406 11.44386719 -8.54382813 11.20023438 -7.50390625 10.94921875 C-6.67761719 10.63597656 -5.85132813 10.32273437 -5 10 C-4.67 9.01 -4.34 8.02 -4 7 C-4.99 7 -5.98 7 -7 7 C-7 6.34 -7 5.68 -7 5 C-0.73 5 5.54 5 12 5 C12 3.35 12 1.7 12 0 C24.57815823 -3.26604418 33.49783316 -3.917075 46 0 C47 1 47 1 47.09765625 3.28515625 C47.08605469 4.20167969 47.07445312 5.11820313 47.0625 6.0625 C47.05347656 6.98160156 47.04445313 7.90070312 47.03515625 8.84765625 C47.02355469 9.55792969 47.01195312 10.26820312 47 11 C33.86420525 15.83950333 24.20669283 14.92497974 11 11 C11 10.01 11 9.02 11 8 C7.7 8 4.4 8 1 8 C1 9.32 1 10.64 1 12 C-16.11645065 15.75882353 -16.11645065 15.75882353 -25 14 C-25.93328125 13.82726562 -26.8665625 13.65453125 -27.828125 13.4765625 C-30.22478129 13.01463713 -32.61341356 12.51141138 -35 12 C-35 8.04 -35 4.08 -35 0 C-21.98728193 -3.6314562 -13.05930682 -3.43881434 0 0 Z " fill="#FE4646" transform="translate(149,9)"/>
<path d="M0 0 C2.97 0 5.94 0 9 0 C10.00696568 2.10084209 11.0053589 4.20579489 12 6.3125 C12.556875 7.48425781 13.11375 8.65601563 13.6875 9.86328125 C15 13 15 13 15 16 C15.66 16 16.32 16 17 16 C17.24878906 15.46890625 17.49757812 14.9378125 17.75390625 14.390625 C20.5424527 9.04081175 23.62588833 4.15604745 28 0 C31.87069098 -0.99503624 35.10451195 -0.7863789 39 0 C36.15796115 4.48742976 33.187141 8.80727513 29.859375 12.94921875 C29.30797852 13.64660156 28.75658203 14.34398437 28.18847656 15.0625 C27.07177165 16.46790768 25.93840964 17.86025513 24.78808594 19.23828125 C23.30885159 21.11608963 22.03933171 22.84701598 21 25 C21.28122244 28.08793988 21.28122244 28.08793988 23 31 C23.58269253 32.34718107 24.15773246 33.69768857 24.7265625 35.05078125 C25.3567051 36.4725405 25.98956302 37.8930991 26.625 39.3125 C30 46.87276786 30 46.87276786 30 48 C26.7 48 23.4 48 20 48 C19.16235732 46.04350603 18.33000941 44.08474444 17.5 42.125 C17.0359375 41.03445312 16.571875 39.94390625 16.09375 38.8203125 C15 36 15 36 15 34 C12.50591273 36.34293047 10.35721395 38.4451586 8.49609375 41.3359375 C6.80927315 43.91291162 5.33419388 45.98077128 3 48 C-0.78412706 48.75580406 -4.1973824 48.55698377 -8 48 C-5.26219463 43.63337371 -2.40112025 39.43622451 0.8828125 35.4609375 C1.38514404 34.84814941 1.88747559 34.23536133 2.4050293 33.60400391 C3.41718312 32.37948645 4.44196075 31.16528231 5.47973633 29.96240234 C8.21732297 26.70011855 8.21732297 26.70011855 9.0703125 22.65234375 C7.45799754 18.65686251 5.74480303 14.72364109 3.9375 10.8125 C3.19326872 9.19554622 2.45221889 7.57712311 1.71484375 5.95703125 C1.38605225 5.24522705 1.05726074 4.53342285 0.71850586 3.80004883 C0 2 0 2 0 0 Z " fill="#040404" transform="translate(184,32)"/>
<path d="M0 0 C2.64 0 5.28 0 8 0 C9.88443878 6.73829624 10.7709833 13.43143021 11.5625 20.375 C11.81045547 22.5290337 12.06159364 24.6827042 12.31640625 26.8359375 C12.47798218 28.25205322 12.47798218 28.25205322 12.64282227 29.69677734 C12.88338719 32.0208278 12.88338719 32.0208278 14 34 C15.79845167 30.28391522 17.59483924 26.56684027 19.3894043 22.84887695 C19.99887781 21.58689121 20.60889312 20.32516697 21.21948242 19.0637207 C22.10221194 17.23979798 22.98292213 15.41491157 23.86328125 13.58984375 C24.39219971 12.49534912 24.92111816 11.40085449 25.46606445 10.27319336 C27.05757243 6.87714887 28.54124697 3.45474013 30 0 C32.97 0 35.94 0 39 0 C36.09426375 7.3760997 32.82951024 14.48890202 29.23999023 21.54907227 C25.98865181 27.96098926 22.92040649 34.45391182 19.88183594 40.96899414 C19.51993164 41.74106201 19.15802734 42.51312988 18.78515625 43.30859375 C18.46426025 43.99751709 18.14336426 44.68644043 17.81274414 45.39624023 C17 47 17 47 16 48 C14.48071962 48.07179964 12.95832518 48.08392007 11.4375 48.0625 C10.61121094 48.05347656 9.78492188 48.04445312 8.93359375 48.03515625 C8.29550781 48.02355469 7.65742188 48.01195312 7 48 C6.32294162 44.10826843 5.6475782 40.2162465 4.97363281 36.32397461 C4.63431198 34.36622646 4.29373617 32.40869595 3.953125 30.45117188 C2.88504218 24.27828145 1.83289164 18.10277682 0.8359375 11.91796875 C0.67399902 10.91918701 0.51206055 9.92040527 0.34521484 8.89135742 C-0.01193188 5.90006416 -0.05978422 3.00960452 0 0 Z " fill="#040404" transform="translate(245,32)"/>
<path d="M0 0 C2.97 0 5.94 0 9 0 C9.08302368 0.93851807 9.08302368 0.93851807 9.16772461 1.89599609 C9.42013899 4.72272197 9.67874193 7.54884807 9.9375 10.375 C10.02451172 11.35984375 10.11152344 12.3446875 10.20117188 13.359375 C10.28818359 14.30039062 10.37519531 15.24140625 10.46484375 16.2109375 C10.543396 17.08024902 10.62194824 17.94956055 10.70288086 18.84521484 C10.88877834 21.04492916 10.88877834 21.04492916 12 23 C15.3 15.41 18.6 7.82 22 0 C24.97 0 27.94 0 31 0 C29.50574402 4.84501182 27.55535217 9.31368851 25.375 13.875 C25.02526123 14.61097412 24.67552246 15.34694824 24.31518555 16.10522461 C10.30437021 45.46375319 10.30437021 45.46375319 5 49 C-1.33333333 49.33333333 -1.33333333 49.33333333 -4 48 C-4 45.69 -4 43.38 -4 41 C-2.865625 40.71125 -1.73125 40.4225 -0.5625 40.125 C0.613125 39.75375 1.78875 39.3825 3 39 C6.11778251 32.76443499 3.65442334 23.41990591 2.5625 16.8125 C2.29284356 15.11069692 2.02330999 13.40887436 1.75390625 11.70703125 C1.62516113 10.90990723 1.49641602 10.1127832 1.36376953 9.29150391 C0.87284775 6.19902614 0.43223458 3.10117817 0 0 Z " fill="#090909" transform="translate(77,45)"/>
<path d="M0 0 C0 0.99 0 1.98 0 3 C-0.66386719 2.98839844 -1.32773438 2.97679688 -2.01171875 2.96484375 C-8.56306787 2.88106591 -8.56306787 2.88106591 -15 4 C-15.33 6.64 -15.66 9.28 -16 12 C-14.18504338 11.55149342 -12.37306866 11.09090429 -10.5625 10.625 C-9.55316406 10.36976562 -8.54382813 10.11453125 -7.50390625 9.8515625 C-4.84429676 9.27426046 -4.84429676 9.27426046 -4 7 C-4.99 7 -5.98 7 -7 7 C-7 6.34 -7 5.68 -7 5 C1.91 5 10.82 5 20 5 C20 5.66 20 6.32 20 7 C18.68 7 17.36 7 16 7 C18.34591852 9.7710688 20.14776201 10.52059284 23.6875 11.1875 C24.49574219 11.34605469 25.30398437 11.50460938 26.13671875 11.66796875 C27.05904297 11.83232422 27.05904297 11.83232422 28 12 C27.505 8.04 27.505 8.04 27 4 C24.36 3.34 21.72 2.68 19 2 C19 1.67 19 1.34 19 1 C20.43791516 1.14168137 21.8753237 1.28851043 23.3125 1.4375 C24.11300781 1.51871094 24.91351563 1.59992188 25.73828125 1.68359375 C28 2 28 2 31 3 C31 5.97 31 8.94 31 12 C34.96 11.01 38.92 10.02 43 9 C43.33 6.36 43.66 3.72 44 1 C43.01 1 42.02 1 41 1 C41 0.34 41 -0.32 41 -1 C42.66611905 -1.042721 44.33382885 -1.04063832 46 -1 C47.66684015 0.66684015 47.21072764 2.65643069 47.25 4.9375 C47.27578125 5.83339844 47.3015625 6.72929688 47.328125 7.65234375 C47.21984375 8.42707031 47.1115625 9.20179687 47 10 C39.61419676 14.92386883 29.46678683 14.54835289 21 13 C17.6147757 12.1366542 14.30222157 11.1389441 11 10 C11 9.01 11 8.02 11 7 C7.7 7 4.4 7 1 7 C1 8.32 1 9.64 1 11 C-12.03876267 14.8228833 -21.89910975 14.4991249 -35 11 C-35 7.04 -35 3.08 -35 -1 C-23.26460031 -4.20056355 -11.10526208 -6.26363867 0 0 Z " fill="#FE3C3C" transform="translate(149,99)"/>
<path d="M0 0 C1.98 0 3.96 0 6 0 C6 0.99 6 1.98 6 3 C10.62 2.67 15.24 2.34 20 2 C20 32.36 20 62.72 20 94 C17.23547967 95.38226016 14.9538637 95.09525387 11.875 95.0625 C10.77929688 95.05347656 9.68359375 95.04445313 8.5546875 95.03515625 C7.29011719 95.01775391 7.29011719 95.01775391 6 95 C6 95.66 6 96.32 6 97 C3.60743751 97.70121643 1.21209511 98.38614901 -1.1875 99.0625 C-2.19780273 99.36124023 -2.19780273 99.36124023 -3.22851562 99.66601562 C-7.17416316 100.76309811 -10.05551294 101.21781251 -14 100 C-13.01 99.505 -13.01 99.505 -12 99 C-12 96.03 -12 93.06 -12 90 C-11.34 90 -10.68 90 -10 90 C-10 92.64 -10 95.28 -10 98 C-3.565 97.01 -3.565 97.01 3 96 C3 93.03 3 90.06 3 87 C1.515 86.505 1.515 86.505 0 86 C1.98 86 3.96 86 6 86 C6 88.31 6 90.62 6 93 C9.63 93 13.26 93 17 93 C17 63.96 17 34.92 17 5 C13.37 5 9.74 5 6 5 C6 6.98 6 8.96 6 11 C4.68 10.67 3.36 10.34 2 10 C2.33 7.03 2.66 4.06 3 1 C2.01 0.67 1.02 0.34 0 0 Z " fill="#FE0101" transform="translate(278,11)"/>
<path d="M0 0 C4.29 0 8.58 0 13 0 C13 0.66 13 1.32 13 2 C10.03 2 7.06 2 4 2 C4 31.04 4 60.08 4 90 C7.3 90 10.6 90 14 90 C14 88.35 14 86.7 14 85 C16.31 85 18.62 85 21 85 C21 85.66 21 86.32 21 87 C19.68 87 18.36 87 17 87 C17 89.64 17 92.28 17 95 C17.67546875 95.06058594 18.3509375 95.12117188 19.046875 95.18359375 C20.38492187 95.30927734 20.38492187 95.30927734 21.75 95.4375 C22.63171875 95.51871094 23.5134375 95.59992188 24.421875 95.68359375 C26.69350452 95.96238465 28.79851823 96.38790577 31 97 C31 94.36 31 91.72 31 89 C31.66 89 32.32 89 33 89 C33 91.64 33 94.28 33 97 C33.60328125 96.855625 34.2065625 96.71125 34.828125 96.5625 C35.62734375 96.376875 36.4265625 96.19125 37.25 96 C38.03890625 95.814375 38.8278125 95.62875 39.640625 95.4375 C42 95 42 95 46 95 C46 94.34 46 93.68 46 93 C46.99 93 47.98 93 49 93 C49 93.99 49 94.98 49 96 C36.71267377 99.55950367 26.30890897 99.12938364 14 96 C14 94.68 14 93.36 14 92 C7.565 92.495 7.565 92.495 1 93 C0.67 62.31 0.34 31.62 0 0 Z " fill="#FE0202" transform="translate(8,15)"/>
<path d="M0 0 C0.94875 0.37125 1.8975 0.7425 2.875 1.125 C3.57625 1.41375 4.2775 1.7025 5 2 C5 5.3 5 8.6 5 12 C-7.57423447 15.00356208 -17.66611655 15.84219128 -30 11 C-30 10.01 -30 9.02 -30 8 C-36.27 8 -42.54 8 -49 8 C-49 7.34 -49 6.68 -49 6 C-40.09 6 -31.18 6 -22 6 C-22 6.66 -22 7.32 -22 8 C-23.32 8.33 -24.64 8.66 -26 9 C-26 9.66 -26 10.32 -26 11 C-20.06 11.99 -20.06 11.99 -14 13 C-14 10.36 -14 7.72 -14 5 C-15.546875 5.061875 -15.546875 5.061875 -17.125 5.125 C-20.86829627 5.00424851 -23.53734547 4.35127982 -27 3 C-27 3.66 -27 4.32 -27 5 C-27.99 5 -28.98 5 -30 5 C-29.67 3.68 -29.34 2.36 -29 1 C-9.7317725 -4.07376523 -9.7317725 -4.07376523 0 0 Z " fill="#FE5353" transform="translate(99,99)"/>
<path d="M0 0 C1.83327172 0.35448544 3.666607 0.70864233 5.5 1.0625 C7.00059887 1.37211151 8.500823 1.68357535 10 2 C9.67 2.66 9.34 3.32 9 4 C8.87994547 5.49649362 8.82468549 6.99874793 8.8125 8.5 C8.79832031 9.2940625 8.78414063 10.088125 8.76953125 10.90625 C8.80333697 13.22033317 8.80333697 13.22033317 11 15 C8.81619325 15.5361079 6.62771417 16.05320098 4.4375 16.5625 C3.21933594 16.85253906 2.00117188 17.14257812 0.74609375 17.44140625 C-5.28882183 18.3412946 -10.5990605 16.94631021 -16.4375 15.4375 C-17.48808594 15.16808594 -18.53867188 14.89867187 -19.62109375 14.62109375 C-20.40613281 14.41613281 -21.19117188 14.21117187 -22 14 C-22 13.01 -22 12.02 -22 11 C-27.94 10.67 -33.88 10.34 -40 10 C-40 9.34 -40 8.68 -40 8 C-31.42 8 -22.84 8 -14 8 C-14 8.66 -14 9.32 -14 10 C-15.32 10.33 -16.64 10.66 -18 11 C-17.67 11.66 -17.34 12.32 -17 13 C-14.65092125 13.68931344 -14.65092125 13.68931344 -11.9375 14.125 C-10.55884766 14.37636719 -10.55884766 14.37636719 -9.15234375 14.6328125 C-8.08693359 14.81457031 -8.08693359 14.81457031 -7 15 C-7 12.36 -7 9.72 -7 7 C-13.93 6.505 -13.93 6.505 -21 6 C-21 4.68 -21 3.36 -21 2 C-13.6178916 0.00818112 -7.53449112 -1.60571122 0 0 Z " fill="#FE4444" transform="translate(272,8)"/>
<path d="M0 0 C0 1.32 0 2.64 0 4 C-0.99 4 -1.98 4 -3 4 C-3 3.34 -3 2.68 -3 2 C-6.96 2.99 -10.92 3.98 -15 5 C-15.33 7.64 -15.66 10.28 -16 13 C-15.154375 12.67 -14.30875 12.34 -13.4375 12 C-9.79010784 10.93894046 -6.77725336 10.84890987 -3 11 C-3 10.01 -3 9.02 -3 8 C-2.01 8 -1.02 8 0 8 C-0.33 9.32 -0.66 10.64 -1 12 C-9.31806818 14.12146696 -16.51325179 15.63100373 -25 14 C-25.93585938 13.82726562 -26.87171875 13.65453125 -27.8359375 13.4765625 C-30.22984877 13.01387377 -32.61590756 12.51087695 -35 12 C-35 8.04 -35 4.08 -35 0 C-21.98728193 -3.6314562 -13.05930682 -3.43881434 0 0 Z " fill="#FE4747" transform="translate(149,9)"/>
<path d="M0 0 C0.33 1.32 0.66 2.64 1 4 C-0.5159375 3.9690625 -0.5159375 3.9690625 -2.0625 3.9375 C-5.80327257 3.99687734 -9.31244898 4.39795085 -13 5 C-13 7.64 -13 10.28 -13 13 C-7.555 12.01 -7.555 12.01 -2 11 C-2 10.34 -2 9.68 -2 9 C-1.01 9 -0.02 9 1 9 C0.67 10.32 0.34 11.64 0 13 C-12.03716816 16.24783348 -19.19237015 15.77188176 -31 12 C-31 8.04 -31 4.08 -31 0 C-19.4763885 -3.34988706 -11.49120205 -2.78012953 0 0 Z " fill="#FE3939" transform="translate(238,10)"/>
<path d="M0 0 C1.39578042 0.18789352 2.79160626 0.37545024 4.1875 0.5625 C5.115625 0.706875 6.04375 0.85125 7 1 C6.01 1.33 5.02 1.66 4 2 C4 2.66 4 3.32 4 4 C4.99 4 5.98 4 7 4 C7 6.64 7 9.28 7 12 C2.66579301 14.03165952 -1.28596212 14.52060632 -6 15 C-6 12.03 -6 9.06 -6 6 C-9.3 5.67 -12.6 5.34 -16 5 C-13.69 5.66 -11.38 6.32 -9 7 C-9 9.64 -9 12.28 -9 15 C-10.43836751 14.88541307 -11.87570966 14.75790884 -13.3125 14.625 C-14.11300781 14.55539063 -14.91351563 14.48578125 -15.73828125 14.4140625 C-18 14 -18 14 -21 12 C-21 11.34 -21 10.68 -21 10 C-19.68 10 -18.36 10 -17 10 C-17 9.34 -17 8.68 -17 8 C-25.91 8 -34.82 8 -44 8 C-44 7.67 -44 7.34 -44 7 C-37.73 7 -31.46 7 -25 7 C-25 5.35 -25 3.7 -25 2 C-16.2949913 -0.24932342 -8.89968827 -1.44978793 0 0 Z " fill="#FE4F4F" transform="translate(186,96)"/>
<path d="M0 0 C2.64 0 5.28 0 8 0 C8.33 0.99 8.66 1.98 9 3 C9.350625 2.505 9.70125 2.01 10.0625 1.5 C12.94374289 -0.73063966 15.47009026 -0.19980621 19 0 C18.125 5.75 18.125 5.75 17 8 C15.906875 8.226875 14.81375 8.45375 13.6875 8.6875 C9.64193858 10.12744559 8.85557524 11.20568268 6.90356445 14.89428711 C5.30509697 18.61943762 4.52938859 22.47347851 3.75 26.4375 C3.57726562 27.26443359 3.40453125 28.09136719 3.2265625 28.94335938 C2.80691002 30.96002266 2.4019167 32.97972725 2 35 C-0.64 35 -3.28 35 -6 35 C-5.1946505 27.59448736 -3.81676677 20.31745452 -2.4375 13 C-2.20353516 11.74832031 -1.96957031 10.49664062 -1.72851562 9.20703125 C-1.15446483 6.13761679 -0.57823512 3.06862845 0 0 Z " fill="#0A0A0A" transform="translate(160,45)"/>
<path d="M0 0 C1.98 0 3.96 0 6 0 C6.33 0.66 6.66 1.32 7 2 C6.01 2 5.02 2 4 2 C4 4.64 4 7.28 4 10 C4.60328125 10.06058594 5.2065625 10.12117188 5.828125 10.18359375 C6.62734375 10.26738281 7.4265625 10.35117187 8.25 10.4375 C9.43335938 10.55931641 9.43335938 10.55931641 10.640625 10.68359375 C12.82364639 10.97634993 14.8773182 11.42064419 17 12 C17 9.36 17 6.72 17 4 C17.66 4 18.32 4 19 4 C19 6.64 19 9.28 19 12 C19.60328125 11.855625 20.2065625 11.71125 20.828125 11.5625 C22.02695312 11.2840625 22.02695312 11.2840625 23.25 11 C24.43335938 10.7215625 24.43335938 10.7215625 25.640625 10.4375 C28 10 28 10 32 10 C32 9.01 32 8.02 32 7 C30.68 7 29.36 7 28 7 C28 6.34 28 5.68 28 5 C36.91 5 45.82 5 55 5 C55 5.66 55 6.32 55 7 C53.68 7.33 52.36 7.66 51 8 C51 8.66 51 9.32 51 10 C51.61488281 10.06058594 52.22976562 10.12117188 52.86328125 10.18359375 C53.67152344 10.26738281 54.47976562 10.35117187 55.3125 10.4375 C56.11300781 10.51871094 56.91351563 10.59992187 57.73828125 10.68359375 C60 11 60 11 63 12 C63 9.36 63 6.72 63 4 C60.36 3.67 57.72 3.34 55 3 C55 2.67 55 2.34 55 2 C61.93 2.495 61.93 2.495 69 3 C68.01 3.33 67.02 3.66 66 4 C66 6.64 66 9.28 66 12 C66.60328125 11.855625 67.2065625 11.71125 67.828125 11.5625 C68.62734375 11.376875 69.4265625 11.19125 70.25 11 C71.03890625 10.814375 71.8278125 10.62875 72.640625 10.4375 C75 10 75 10 79 10 C79 7.36 79 4.72 79 2 C78.01 2 77.02 2 76 2 C76 1.34 76 0.68 76 0 C77.98 0 79.96 0 82 0 C82 3.63 82 7.26 82 11 C73.44516364 13.01894138 65.77323602 14.76061539 57 13 C56.13890625 12.82726563 55.2778125 12.65453125 54.390625 12.4765625 C52.25282687 12.0184629 50.12502201 11.51411823 48 11 C47.505 9.02 47.505 9.02 47 7 C43.04 7 39.08 7 35 7 C35 8.32 35 9.64 35 11 C32.98164215 11.50990093 30.96016125 12.00744664 28.9375 12.5 C27.81214844 12.7784375 26.68679687 13.056875 25.52734375 13.34375 C19.06061596 14.54686215 13.39061722 13.87864772 7.0625 12.5 C6.37865234 12.35691406 5.69480469 12.21382812 4.99023438 12.06640625 C3.32550486 11.71716229 1.66255125 11.35947054 0 11 C0 7.37 0 3.74 0 0 Z " fill="#FE3A3A" transform="translate(22,11)"/>
<path d="M0 0 C2.05078125 0.03255208 4.1015625 0.06510417 6.15234375 0.09765625 C5.43739714 4.41030609 4.70432499 8.71950855 3.9609375 13.02734375 C3.73857422 14.31640625 3.51621094 15.60546875 3.28710938 16.93359375 C3.05469119 18.27994855 2.82226927 19.62630271 2.58984375 20.97265625 C2.35350007 22.34244523 2.1171718 23.71223687 1.88085938 25.08203125 C1.30483887 28.42059907 0.72866175 31.75913978 0.15234375 35.09765625 C-2.48765625 35.09765625 -5.12765625 35.09765625 -7.84765625 35.09765625 C-7.54183314 26.85572357 -6.39001248 18.93815321 -4.84765625 10.84765625 C-4.66944336 9.90639893 -4.49123047 8.9651416 -4.30761719 7.99536133 C-2.76787895 0.14629381 -2.76787895 0.14629381 0 0 Z " fill="#090909" transform="translate(229.84765625,44.90234375)"/>
<path d="M0 0 C1.11375 0.37125 2.2275 0.7425 3.375 1.125 C4.24125 1.41375 5.1075 1.7025 6 2 C6 2.99 6 3.98 6 5 C4.68 5 3.36 5 2 5 C2 4.34 2 3.68 2 3 C0.948125 3.33 -0.10375 3.66 -1.1875 4 C-4.38873357 4.83966782 -6.7411008 5.19750904 -10 5 C-10 7.64 -10 10.28 -10 13 C-10.33 13 -10.66 13 -11 13 C-11 10.36 -11 7.72 -11 5 C-11.66 5 -12.32 5 -13 5 C-13 7.64 -13 10.28 -13 13 C-14.58367747 12.85795259 -16.16693318 12.71119847 -17.75 12.5625 C-18.63171875 12.48128906 -19.5134375 12.40007812 -20.421875 12.31640625 C-22.69350452 12.03761535 -24.79851823 11.61209423 -27 11 C-27 8.36 -27 5.72 -27 3 C-25.68 3 -24.36 3 -23 3 C-23 2.34 -23 1.68 -23 1 C-23.99 0.67 -24.98 0.34 -26 0 C-17.26848447 -2.29023358 -8.55850858 -3.5826315 0 0 Z " fill="#FE5656" transform="translate(52,99)"/>
<path d="M0 0 C-0.33 0.66 -0.66 1.32 -1 2 C-1.06950541 3.54023996 -1.08452357 5.08334988 -1.0625 6.625 C-1.05347656 7.44226563 -1.04445313 8.25953125 -1.03515625 9.1015625 C-1.02355469 9.72804688 -1.01195312 10.35453125 -1 11 C-9.42857143 13.28571429 -9.42857143 13.28571429 -14 13 C-14 10.36 -14 7.72 -14 5 C-19.61 4.67 -25.22 4.34 -31 4 C-31 2.68 -31 1.36 -31 0 C-19.49334536 -2.98781759 -11.18029211 -4.4403997 0 0 Z " fill="#FE3232" transform="translate(282,96)"/>
<path d="M0 0 C0 1.32 0 2.64 0 4 C-0.99 4 -1.98 4 -3 4 C-3 3.34 -3 2.68 -3 2 C-3.86625 2.33 -4.7325 2.66 -5.625 3 C-8.95718275 3.98731341 -11.55159538 4.16420974 -15 4 C-15 6.64 -15 9.28 -15 12 C-15.33 12 -15.66 12 -16 12 C-16 9.36 -16 6.72 -16 4 C-16.66 4 -17.32 4 -18 4 C-18 6.64 -18 9.28 -18 12 C-19.41702513 11.85769192 -20.8336096 11.71099254 -22.25 11.5625 C-23.43335938 11.44068359 -23.43335938 11.44068359 -24.640625 11.31640625 C-26.82364639 11.02365007 -28.8773182 10.57935581 -31 10 C-31 7.36 -31 4.72 -31 2 C-30.34 1.67 -29.68 1.34 -29 1 C-29.66 0.34 -30.32 -0.32 -31 -1 C-20.66051116 -4.03053983 -10.2558788 -3.07676364 0 0 Z " fill="#FE5454" transform="translate(57,11)"/>
<path d="M0 0 C-0.33 0.99 -0.66 1.98 -1 3 C-0.01 3 0.98 3 2 3 C2 5.64 2 8.28 2 11 C-2.29 11.66 -6.58 12.32 -11 13 C-11 10.36 -11 7.72 -11 5 C-17.56492112 4.21558847 -23.46837378 3.89085592 -30 5 C-29.67 3.68 -29.34 2.36 -29 1 C-18.61863441 -1.92130638 -10.48028123 -2.1709154 0 0 Z " fill="#FE4949" transform="translate(99,10)"/>
<path d="M0 0 C0.33 1.32 0.66 2.64 1 4 C4.3 4 7.6 4 11 4 C11.33 2.68 11.66 1.36 12 0 C12 0.99 12 1.98 12 3 C13.010625 2.79375 14.02125 2.5875 15.0625 2.375 C19.49506869 1.9528506 21.86108962 2.5640515 26 4 C26 6.64 26 9.28 26 12 C24.3739713 11.93999894 22.74898451 11.8512115 21.125 11.75 C19.76761719 11.68039063 19.76761719 11.68039063 18.3828125 11.609375 C16 11 16 11 14.6796875 8.953125 C14.45539063 8.30859375 14.23109375 7.6640625 14 7 C15.65 7 17.3 7 19 7 C19 6.34 19 5.68 19 5 C10.42 5 1.84 5 -7 5 C-7 5.66 -7 6.32 -7 7 C-4.03 7 -1.06 7 2 7 C1.34 8.32 0.68 9.64 0 11 C0 10.01 0 9.02 0 8 C-0.99 8 -1.98 8 -3 8 C-3 8.66 -3 9.32 -3 10 C-6.82320557 11.42258812 -9.91281305 12.24042276 -14 12 C-14 9.36 -14 6.72 -14 4 C-8.83430559 2.20782031 -5.48946087 1.87970186 0 3 C0 2.01 0 1.02 0 0 Z " fill="#FEE3E3" transform="translate(239,11)"/>
<path d="M0 0 C0.33 1.32 0.66 2.64 1 4 C4.3 4 7.6 4 11 4 C11.33 2.68 11.66 1.36 12 0 C12 0.99 12 1.98 12 3 C13.010625 2.79375 14.02125 2.5875 15.0625 2.375 C19.49506869 1.9528506 21.86108962 2.5640515 26 4 C26 6.64 26 9.28 26 12 C18.375 11.125 18.375 11.125 15 10 C14.67 9.01 14.34 8.02 14 7 C15.65 7 17.3 7 19 7 C19 6.34 19 5.68 19 5 C10.42 5 1.84 5 -7 5 C-7 5.66 -7 6.32 -7 7 C-5.35 7 -3.7 7 -2 7 C-2.33 7.99 -2.66 8.98 -3 10 C-4.7421875 10.73046875 -4.7421875 10.73046875 -6.875 11.1875 C-7.57367188 11.34605469 -8.27234375 11.50460938 -8.9921875 11.66796875 C-11 12 -11 12 -14 12 C-14 9.36 -14 6.72 -14 4 C-8.80451575 1.79191919 -5.41735797 2.06597276 0 3 C0 2.01 0 1.02 0 0 Z " fill="#FEE2E2" transform="translate(239,97)"/>
<path d="M0 0 C0.33 0.99 0.66 1.98 1 3 C4.3 3 7.6 3 11 3 C11.33 2.01 11.66 1.02 12 0 C12 0.99 12 1.98 12 3 C13.32 3 14.64 3 16 3 C16.33 2.34 16.66 1.68 17 1 C20.63 1.66 24.26 2.32 28 3 C28 5.64 28 8.28 28 11 C22.06 10.01 22.06 10.01 16 9 C15.67 8.01 15.34 7.02 15 6 C16.65 6 18.3 6 20 6 C20 5.34 20 4.68 20 4 C11.09 4 2.18 4 -7 4 C-7 4.66 -7 5.32 -7 6 C-5.68 6 -4.36 6 -3 6 C-3 6.99 -3 7.98 -3 9 C-6.96 9.66 -10.92 10.32 -15 11 C-15 8.36 -15 5.72 -15 3 C-11.04 2.34 -7.08 1.68 -3 1 C-3 1.66 -3 2.32 -3 3 C-2.01 3 -1.02 3 0 3 C0 2.01 0 1.02 0 0 Z " fill="#FFEFEF" transform="translate(57,12)"/>
<path d="M0 0 C1.97993541 0.30759178 3.95893599 0.6212068 5.9375 0.9375 C7.03964844 1.11152344 8.14179688 1.28554687 9.27734375 1.46484375 C12 2 12 2 13 3 C13.14115161 5.67058851 13.04247107 8.32432238 13 11 C8.62065881 10.48041715 4.31196609 9.94324258 0 9 C0 8.01 0 7.02 0 6 C-0.99 6 -1.98 6 -3 6 C-3.33 6.99 -3.66 7.98 -4 9 C-4 8.01 -4 7.02 -4 6 C-7.3 6 -10.6 6 -14 6 C-14 7.32 -14 8.64 -14 10 C-14.66 9.67 -15.32 9.34 -16 9 C-15.67 8.01 -15.34 7.02 -15 6 C-15.99 6 -16.98 6 -18 6 C-18 6.99 -18 7.98 -18 9 C-18.66 8.67 -19.32 8.34 -20 8 C-19.67 7.01 -19.34 6.02 -19 5 C-19.99 5 -20.98 5 -22 5 C-22 4.34 -22 3.68 -22 3 C-14.74 2.67 -7.48 2.34 0 2 C0 1.34 0 0.68 0 0 Z " fill="#FEB5B5" transform="translate(164,11)"/>
<path d="M0 0 C1.66611905 -0.042721 3.33382885 -0.04063832 5 0 C6 1 6 1 6.09765625 3.28515625 C6.08605469 4.20167969 6.07445312 5.11820312 6.0625 6.0625 C6.05347656 6.98160156 6.04445312 7.90070313 6.03515625 8.84765625 C6.02355469 9.55792969 6.01195312 10.26820312 6 11 C-6.57423447 14.00356208 -16.66611655 14.84219128 -29 10 C-29 9.01 -29 8.02 -29 7 C-35.27 7 -41.54 7 -48 7 C-48 6.34 -48 5.68 -48 5 C-39.09 5 -30.18 5 -21 5 C-21 5.66 -21 6.32 -21 7 C-22.32 7.33 -23.64 7.66 -25 8 C-25 8.66 -25 9.32 -25 10 C-19.06 10.99 -19.06 10.99 -13 12 C-13 9.36 -13 6.72 -13 4 C-13.99 3.67 -14.98 3.34 -16 3 C-13.03 3 -10.06 3 -7 3 C-7.99 3.33 -8.98 3.66 -10 4 C-10 6.64 -10 9.28 -10 12 C-9.39671875 11.855625 -8.7934375 11.71125 -8.171875 11.5625 C-7.37265625 11.376875 -6.5734375 11.19125 -5.75 11 C-4.96109375 10.814375 -4.1721875 10.62875 -3.359375 10.4375 C-1 10 -1 10 3 10 C3 7.36 3 4.72 3 2 C2.01 2 1.02 2 0 2 C0 1.34 0 0.68 0 0 Z " fill="#FE2020" transform="translate(98,100)"/>
<path d="M0 0 C0.33 0 0.66 0 1 0 C1.33 2.64 1.66 5.28 2 8 C2.33 5.36 2.66 2.72 3 0 C3.33 0 3.66 0 4 0 C4 2.64 4 5.28 4 8 C9.445 7.01 9.445 7.01 15 6 C15 5.34 15 4.68 15 4 C13.68 3.67 12.36 3.34 11 3 C11 2.34 11 1.68 11 1 C19.58 1 28.16 1 37 1 C37 1.66 37 2.32 37 3 C35.68 3.33 34.36 3.66 33 4 C33 4.66 33 5.32 33 6 C36.63 6.66 40.26 7.32 44 8 C44 5.36 44 2.72 44 0 C44.33 0 44.66 0 45 0 C45 2.97 45 5.94 45 9 C40.66933041 10.0826674 38.96270145 9.70725583 34.75 8.5625 C33.67234375 8.27503906 32.5946875 7.98757812 31.484375 7.69140625 C30.66453125 7.46324219 29.8446875 7.23507813 29 7 C29 6.01 29 5.02 29 4 C23.555 3.505 23.555 3.505 18 3 C17.67 4.65 17.34 6.3 17 8 C3.43845594 11.60961398 3.43845594 11.60961398 -3 10 C-4.64539612 9.64380763 -6.2912492 9.2897211 -7.9375 8.9375 C-9.29227399 8.62764351 -10.64666562 8.3160849 -12 8 C-11.67 7.34 -11.34 6.68 -11 6 C-7.37 6.66 -3.74 7.32 0 8 C0 5.36 0 2.72 0 0 Z " fill="#FE5656" transform="translate(221,101)"/>
<path d="M0 0 C1.66611905 -0.042721 3.33382885 -0.04063832 5 0 C6.66684015 1.66684015 6.21072764 3.65643069 6.25 5.9375 C6.27578125 6.83339844 6.3015625 7.72929688 6.328125 8.65234375 C6.21984375 9.42707031 6.1115625 10.20179687 6 11 C-1.36409279 15.9093952 -11.55503273 15.58343136 -20 14 C-23.06721294 13.15294992 -26.03863782 12.16260886 -29 11 C-29 10.01 -29 9.02 -29 8 C-28.01 8 -27.02 8 -26 8 C-26 8.99 -26 9.98 -26 11 C-24.783125 11.144375 -23.56625 11.28875 -22.3125 11.4375 C-19.17329623 11.82780953 -16.0924866 12.32351856 -13 13 C-13.33 10.36 -13.66 7.72 -14 5 C-16.64 4.34 -19.28 3.68 -22 3 C-22 2.67 -22 2.34 -22 2 C-20.56208484 2.14168137 -19.1246763 2.28851043 -17.6875 2.4375 C-16.88699219 2.51871094 -16.08648437 2.59992188 -15.26171875 2.68359375 C-13 3 -13 3 -10 4 C-10 6.97 -10 9.94 -10 13 C-6.04 12.01 -2.08 11.02 2 10 C2.33 7.36 2.66 4.72 3 2 C2.01 2 1.02 2 0 2 C0 1.34 0 0.68 0 0 Z " fill="#FE2D2D" transform="translate(190,98)"/>
<path d="M0 0 C1.66611905 -0.042721 3.33382885 -0.04063832 5 0 C6 1 6 1 6.09765625 3.28515625 C6.08605469 4.20167969 6.07445312 5.11820313 6.0625 6.0625 C6.05347656 6.98160156 6.04445312 7.90070312 6.03515625 8.84765625 C6.02355469 9.55792969 6.01195312 10.26820312 6 11 C-6.16787556 15.48290152 -15.61516102 15.01569365 -28 12 C-28.33 10.68 -28.66 9.36 -29 8 C-28.01 8 -27.02 8 -26 8 C-26 8.99 -26 9.98 -26 11 C-25.39671875 11.06058594 -24.7934375 11.12117188 -24.171875 11.18359375 C-23.37265625 11.26738281 -22.5734375 11.35117187 -21.75 11.4375 C-20.56664062 11.55931641 -20.56664062 11.55931641 -19.359375 11.68359375 C-17.17635361 11.97634993 -15.1226818 12.42064419 -13 13 C-13.103125 11.72125 -13.20625 10.4425 -13.3125 9.125 C-13.37050781 8.40570313 -13.42851562 7.68640625 -13.48828125 6.9453125 C-13.87393036 4.60480784 -13.87393036 4.60480784 -17 3 C-13.37 3 -9.74 3 -6 3 C-7.32 3.33 -8.64 3.66 -10 4 C-10 6.97 -10 9.94 -10 13 C-8.783125 12.67 -7.56625 12.34 -6.3125 12 C-3.12789396 11.19677787 -0.3027157 10.79358027 3 11 C3 8.03 3 5.06 3 2 C2.01 2 1.02 2 0 2 C0 1.34 0 0.68 0 0 Z " fill="#FE3131" transform="translate(190,9)"/>
<path d="M0 0 C1.98 0 3.96 0 6 0 C6 3.63 6 7.26 6 11 C-2.57413066 13.02349483 -10.20673111 14.72270174 -19 13 C-19.84949219 12.86207031 -20.69898437 12.72414063 -21.57421875 12.58203125 C-26.1884694 11.73451582 -26.1884694 11.73451582 -28 11 C-28.33 10.01 -28.66 9.02 -29 8 C-27.68 8 -26.36 8 -25 8 C-25 8.66 -25 9.32 -25 10 C-24.38511719 10.06058594 -23.77023438 10.12117188 -23.13671875 10.18359375 C-22.32847656 10.26738281 -21.52023438 10.35117187 -20.6875 10.4375 C-19.88699219 10.51871094 -19.08648437 10.59992187 -18.26171875 10.68359375 C-16 11 -16 11 -13 12 C-13 9.36 -13 6.72 -13 4 C-15.64 3.67 -18.28 3.34 -21 3 C-21 2.67 -21 2.34 -21 2 C-14.07 2.495 -14.07 2.495 -7 3 C-7.99 3.33 -8.98 3.66 -10 4 C-10 6.64 -10 9.28 -10 12 C-9.39671875 11.855625 -8.7934375 11.71125 -8.171875 11.5625 C-6.97304687 11.2840625 -6.97304687 11.2840625 -5.75 11 C-4.56664062 10.7215625 -4.56664062 10.7215625 -3.359375 10.4375 C-1 10 -1 10 3 10 C3 7.36 3 4.72 3 2 C2.01 2 1.02 2 0 2 C0 1.34 0 0.68 0 0 Z " fill="#FE3030" transform="translate(98,11)"/>
<path d="M0 0 C1.98 0 3.96 0 6 0 C6 0.66 6 1.32 6 2 C5.01 2 4.02 2 3 2 C3 4.97 3 7.94 3 11 C3.68707031 11.06058594 4.37414062 11.12117188 5.08203125 11.18359375 C6.43361328 11.30927734 6.43361328 11.30927734 7.8125 11.4375 C8.70582031 11.51871094 9.59914063 11.59992187 10.51953125 11.68359375 C13 12 13 12 16 13 C16 10.03 16 7.06 16 4 C19.465 3.505 19.465 3.505 23 3 C22.01 3.66 21.02 4.32 20 5 C19.42251197 6.96361864 19.42251197 6.96361864 19.3125 9.125 C19.209375 10.40375 19.10625 11.6825 19 13 C19.845625 12.67 20.69125 12.34 21.5625 12 C25.20989216 10.93894046 28.22274664 10.84890987 32 11 C32 10.01 32 9.02 32 8 C32.99 8 33.98 8 35 8 C34.67 9.32 34.34 10.64 34 12 C25.68193182 14.12146696 18.48674821 15.63100373 10 14 C9.06414062 13.82726563 8.12828125 13.65453125 7.1640625 13.4765625 C4.77015123 13.01387377 2.38409244 12.51087695 0 12 C0 8.04 0 4.08 0 0 Z " fill="#FD2828" transform="translate(114,9)"/>
<path d="M0 0 C0.33 0 0.66 0 1 0 C1.33910994 2.04071515 1.67102704 4.08262621 2 6.125 C2.185625 7.26195312 2.37125 8.39890625 2.5625 9.5703125 C3 13 3 13 3 19 C-0.96 19 -4.92 19 -9 19 C-7.6077541 14.37324343 -5.70479016 10.35313769 -3.375 6.125 C-2.74335938 4.97257812 -2.11171875 3.82015625 -1.4609375 2.6328125 C-0.97882813 1.76398437 -0.49671875 0.89515625 0 0 Z " fill="#E6E6E6" transform="translate(133,43)"/>
<path d="M0 0 C1.07507813 0.09023437 2.15015625 0.18046875 3.2578125 0.2734375 C5.875 0.625 5.875 0.625 6.875 1.625 C7.01615161 4.29558851 6.91747107 6.94932238 6.875 9.625 C5.43663249 9.51041307 3.99929034 9.38290884 2.5625 9.25 C1.76199219 9.18039063 0.96148437 9.11078125 0.13671875 9.0390625 C-2.125 8.625 -2.125 8.625 -5.125 6.625 C-5.125 5.965 -5.125 5.305 -5.125 4.625 C-3.805 4.625 -2.485 4.625 -1.125 4.625 C-1.125 3.965 -1.125 3.305 -1.125 2.625 C-10.035 2.625 -18.945 2.625 -28.125 2.625 C-28.125 2.295 -28.125 1.965 -28.125 1.625 C-27.56514404 1.59994385 -27.00528809 1.5748877 -26.4284668 1.54907227 C-23.88958695 1.43296255 -21.35106447 1.3103042 -18.8125 1.1875 C-17.49088867 1.12852539 -17.49088867 1.12852539 -16.14257812 1.06835938 C-14.87124023 1.00551758 -14.87124023 1.00551758 -13.57421875 0.94140625 C-12.79393311 0.90474854 -12.01364746 0.86809082 -11.2097168 0.83032227 C-1.45867671 -0.13005069 -1.45867671 -0.13005069 0 0 Z " fill="#FED6D6" transform="translate(170.125,101.375)"/>
<path d="M0 0 C4.29 0.99 8.58 1.98 13 3 C13 5.64 13 8.28 13 11 C11.58297487 10.85769192 10.1663904 10.71099254 8.75 10.5625 C7.56664063 10.44068359 7.56664063 10.44068359 6.359375 10.31640625 C4 10 4 10 0 9 C0 6.03 0 3.06 0 0 Z " fill="#FEEEEE" transform="translate(117,100)"/>
<path d="M0 0 C0 2.97 0 5.94 0 9 C-4.29 9.66 -8.58 10.32 -13 11 C-13 8.03 -13 5.06 -13 2 C-11.39658445 1.66307215 -9.79223445 1.33058907 -8.1875 1 C-7.29417969 0.814375 -6.40085938 0.62875 -5.48046875 0.4375 C-3 0 -3 0 0 0 Z " fill="#FEEEEE" transform="translate(193,11)"/>
<path d="M0 0 C1.97993541 0.30759178 3.95893599 0.6212068 5.9375 0.9375 C7.03964844 1.11152344 8.14179687 1.28554687 9.27734375 1.46484375 C12 2 12 2 13 3 C13.14115161 5.67058851 13.04247107 8.32432238 13 11 C8.71 10.34 4.42 9.68 0 9 C0 6.03 0 3.06 0 0 Z " fill="#FEEEEE" transform="translate(117,11)"/>
<path d="M0 0 C0 2.64 0 5.28 0 8 C-4.33420699 10.03165952 -8.28596212 10.52060632 -13 11 C-13 8.36 -13 5.72 -13 3 C-2.6 0 -2.6 0 0 0 Z " fill="#FEF1F1" transform="translate(193,100)"/>
<path d="M0 0 C4.29 0.66 8.58 1.32 13 2 C13 4.64 13 7.28 13 10 C8.71 9.34 4.42 8.68 0 8 C0 5.36 0 2.72 0 0 Z " fill="#FEEDED" transform="translate(25,102)"/>
<path d="M0 0 C0 2.64 0 5.28 0 8 C-4.29 8.66 -8.58 9.32 -13 10 C-13 7.36 -13 4.72 -13 2 C-11.20873548 1.66451233 -9.41697413 1.33167645 -7.625 1 C-6.62726563 0.814375 -5.62953125 0.62875 -4.6015625 0.4375 C-2 0 -2 0 0 0 Z " fill="#FEEEEE" transform="translate(101,13)"/>
<path d="M0 0 C0 2.64 0 5.28 0 8 C-1.41538717 8.33872513 -2.83237963 8.67074624 -4.25 9 C-5.03890625 9.185625 -5.8278125 9.37125 -6.640625 9.5625 C-9 10 -9 10 -13 10 C-13 7.36 -13 4.72 -13 2 C-11.20873548 1.66451233 -9.41697413 1.33167645 -7.625 1 C-6.62726563 0.814375 -5.62953125 0.62875 -4.6015625 0.4375 C-2 0 -2 0 0 0 Z " fill="#FFEFEF" transform="translate(101,102)"/>
<path d="M0 0 C0 2.64 0 5.28 0 8 C-4.1196377 9.29243536 -7.66831683 10.26252625 -12 10 C-12 7.36 -12 4.72 -12 2 C-10.7625 1.67 -9.525 1.34 -8.25 1 C-7.55390625 0.814375 -6.8578125 0.62875 -6.140625 0.4375 C-4 0 -4 0 0 0 Z " fill="#FEF0F0" transform="translate(280,99)"/>
<path d="M0 0 C0 0.66 0 1.32 0 2 C0.99 2.33 1.98 2.66 3 3 C0.69 3 -1.62 3 -4 3 C-4 3.66 -4 4.32 -4 5 C-3.01 5 -2.02 5 -1 5 C-1.33 6.32 -1.66 7.64 -2 9 C-5.63 9.66 -9.26 10.32 -13 11 C-13 8.36 -13 5.72 -13 3 C-4.4 0 -4.4 0 0 0 Z " fill="#FEF1F1" transform="translate(146,11)"/>
<path d="M0 0 C1.43791516 0.14168137 2.8753237 0.28851043 4.3125 0.4375 C5.11300781 0.51871094 5.91351563 0.59992188 6.73828125 0.68359375 C9 1 9 1 12 2 C12 4.64 12 7.28 12 10 C3.42857143 9 3.42857143 9 0 8 C0 5.36 0 2.72 0 0 Z " fill="#FFF2F2" transform="translate(209,99)"/>
<path d="M0 0 C1.43791516 0.14168137 2.8753237 0.28851043 4.3125 0.4375 C5.11300781 0.51871094 5.91351563 0.59992187 6.73828125 0.68359375 C9 1 9 1 12 2 C12 4.64 12 7.28 12 10 C10.3745692 9.85904936 8.74965949 9.71207913 7.125 9.5625 C6.22007812 9.48128906 5.31515625 9.40007813 4.3828125 9.31640625 C2 9 2 9 0 8 C0 5.36 0 2.72 0 0 Z " fill="#FEF1F1" transform="translate(209,13)"/>
<path d="M0 0 C0.33 0.99 0.66 1.98 1 3 C1.99 3 2.98 3 4 3 C4 2.34 4 1.68 4 1 C8.29 1.66 12.58 2.32 17 3 C17 5.64 17 8.28 17 11 C11.06 10.01 11.06 10.01 5 9 C4.67 8.01 4.34 7.02 4 6 C5.65 6 7.3 6 9 6 C9 5.34 9 4.68 9 4 C6.03 4 3.06 4 0 4 C0 2.68 0 1.36 0 0 Z " fill="#FEF1F1" transform="translate(68,101)"/>
<path d="M0 0 C5.94 0.99 5.94 0.99 12 2 C12 4.64 12 7.28 12 10 C6.06 9.01 6.06 9.01 0 8 C0 5.36 0 2.72 0 0 Z " fill="#FEF5F5" transform="translate(26,13)"/>
<path d="M0 0 C0 0.66 0 1.32 0 2 C0.99 2.33 1.98 2.66 3 3 C0.69 3 -1.62 3 -4 3 C-4 3.66 -4 4.32 -4 5 C-1.69 5 0.62 5 3 5 C2.01 5.33 1.02 5.66 0 6 C0 6.66 0 7.32 0 8 C-3.96 8.66 -7.92 9.32 -12 10 C-12 7.36 -12 4.72 -12 2 C-10.37548581 1.66430703 -8.75037083 1.3315204 -7.125 1 C-6.22007813 0.814375 -5.31515625 0.62875 -4.3828125 0.4375 C-2 0 -2 0 0 0 Z " fill="#FFF3F3" transform="translate(54,102)"/>
<path d="M0 0 C-0.66 1.65 -1.32 3.3 -2 5 C-1.01 5 -0.02 5 1 5 C0.67 5.99 0.34 6.98 0 8 C-3.87862084 9.39044898 -6.86462003 10 -11 10 C-11 7.36 -11 4.72 -11 2 C-7.17679443 0.57741188 -4.08718695 -0.24042276 0 0 Z " fill="#FEEBEB" transform="translate(144,101)"/>
<path d="M0 0 C0 2.64 0 5.28 0 8 C-3.82320557 9.42258812 -6.91281305 10.24042276 -11 10 C-11 7.36 -11 4.72 -11 2 C-9.5422647 1.664061 -8.08378894 1.33133376 -6.625 1 C-5.40683594 0.7215625 -5.40683594 0.7215625 -4.1640625 0.4375 C-2 0 -2 0 0 0 Z " fill="#FFF8F8" transform="translate(280,13)"/>
<path d="M0 0 C1.98 0 3.96 0 6 0 C6 3.63 6 7.26 6 11 C3.60743751 11.70121643 1.21209511 12.38614901 -1.1875 13.0625 C-1.86103516 13.26166016 -2.53457031 13.46082031 -3.22851562 13.66601562 C-7.17416316 14.76309811 -10.05551294 15.21781251 -14 14 C-13.34 13.67 -12.68 13.34 -12 13 C-12 10.03 -12 7.06 -12 4 C-11.34 4 -10.68 4 -10 4 C-10 6.64 -10 9.28 -10 12 C-5.71 11.34 -1.42 10.68 3 10 C3 7.03 3 4.06 3 1 C2.01 0.67 1.02 0.34 0 0 Z " fill="#FE2C2C" transform="translate(278,97)"/>
<path d="M0 0 C7.625 0.875 7.625 0.875 11 2 C11 4.64 11 7.28 11 10 C9.3739713 9.93999894 7.74898451 9.8512115 6.125 9.75 C4.76761719 9.68039063 4.76761719 9.68039063 3.3828125 9.609375 C1 9 1 9 -0.3203125 6.953125 C-0.54460937 6.30859375 -0.76890625 5.6640625 -1 5 C0.65 5 2.3 5 4 5 C4 4.34 4 3.68 4 3 C2.68 3 1.36 3 0 3 C0 2.01 0 1.02 0 0 Z " fill="#FEF2F2" transform="translate(254,13)"/>
<path d="M0 0 C7.625 0.875 7.625 0.875 11 2 C11 4.64 11 7.28 11 10 C3.375 9.125 3.375 9.125 0 8 C-0.33 7.01 -0.66 6.02 -1 5 C0.65 5 2.3 5 4 5 C4 4.34 4 3.68 4 3 C2.68 3 1.36 3 0 3 C0 2.01 0 1.02 0 0 Z " fill="#FEF4F4" transform="translate(254,99)"/>
<path d="M0 0 C0.66 0 1.32 0 2 0 C2 2.64 2 5.28 2 8 C2.60328125 7.855625 3.2065625 7.71125 3.828125 7.5625 C5.02695312 7.2840625 5.02695312 7.2840625 6.25 7 C7.43335938 6.7215625 7.43335938 6.7215625 8.640625 6.4375 C11 6 11 6 15 6 C15 5.34 15 4.68 15 4 C15.99 4 16.98 4 18 4 C18 4.99 18 5.98 18 7 C5.71267377 10.55950367 -4.69109103 10.12938364 -17 7 C-16.67 5.68 -16.34 4.36 -16 3 C-16 3.99 -16 4.98 -16 6 C-15.18015625 6.06058594 -14.3603125 6.12117188 -13.515625 6.18359375 C-12.43796875 6.26738281 -11.3603125 6.35117188 -10.25 6.4375 C-9.18265625 6.51871094 -8.1153125 6.59992188 -7.015625 6.68359375 C-4.56320038 6.94090773 -2.36078709 7.31812218 0 8 C0 5.36 0 2.72 0 0 Z " fill="#FE3333" transform="translate(39,104)"/>
<path d="M0 0 C8.58 0 17.16 0 26 0 C26 0.66 26 1.32 26 2 C24.68 2.33 23.36 2.66 22 3 C22.33 3.66 22.66 4.32 23 5 C25.52733235 5.65555119 25.52733235 5.65555119 28 6 C27.67 6.66 27.34 7.32 27 8 C24.03 7.34 21.06 6.68 18 6 C18 5.01 18 4.02 18 3 C12.06 2.67 6.12 2.34 0 2 C0 1.34 0 0.68 0 0 Z " fill="#FE5B5B" transform="translate(232,16)"/>
<path d="M0 0 C8.91 0 17.82 0 27 0 C27 0.66 27 1.32 27 2 C25.68 2 24.36 2 23 2 C23.33 2.99 23.66 3.98 24 5 C23.34 5 22.68 5 22 5 C22 4.01 22 3.02 22 2 C21.01 2 20.02 2 19 2 C18.67 2.99 18.34 3.98 18 5 C18 4.01 18 3.02 18 2 C14.7 2 11.4 2 8 2 C8 3.32 8 4.64 8 6 C7.34 5.67 6.68 5.34 6 5 C6.33 4.34 6.66 3.68 7 3 C6.01 3 5.02 3 4 3 C4 3.66 4 4.32 4 5 C3.34 4.67 2.68 4.34 2 4 C2.33 3.34 2.66 2.68 3 2 C2.01 2 1.02 2 0 2 C0 1.34 0 0.68 0 0 Z " fill="#FE8787" transform="translate(142,104)"/>
<path d="M0 0 C2.64 0 5.28 0 8 0 C7.67 2.97 7.34 5.94 7 9 C4.36 9 1.72 9 -1 9 C-0.67 6.03 -0.34 3.06 0 0 Z " fill="#101010" transform="translate(230,32)"/>
<path d="M0 0 C-0.73605469 -0.02320313 -1.47210938 -0.04640625 -2.23046875 -0.0703125 C-3.69419922 -0.09738281 -3.69419922 -0.09738281 -5.1875 -0.125 C-6.63189453 -0.15980469 -6.63189453 -0.15980469 -8.10546875 -0.1953125 C-11.12812778 0.0086456 -13.26769985 0.73125368 -16 2 C-14.35 2.33 -12.7 2.66 -11 3 C-11.33 3.66 -11.66 4.32 -12 5 C-16.29 4.67 -20.58 4.34 -25 4 C-25 2.68 -25 1.36 -25 0 C-8.41552329 -4.47477497 -8.41552329 -4.47477497 0 0 Z " fill="#FE3939" transform="translate(276,10)"/>
<path d="M0 0 C-4.42883498 2.95255665 -9.11017304 3.47210044 -14.3671875 2.61328125 C-16.26157163 2.13799982 -18.134007 1.57676147 -20 1 C-14.67558018 -4.32441982 -6.44822956 -2.10554435 0 0 Z " fill="#FEE0E0" transform="translate(233,97)"/>
<path d="M0 0 C1.66611905 -0.042721 3.33382885 -0.04063832 5 0 C6 1 6 1 6.09765625 3.28515625 C6.08605469 4.20167969 6.07445313 5.11820312 6.0625 6.0625 C6.05347656 6.98160156 6.04445313 7.90070313 6.03515625 8.84765625 C6.02355469 9.55792969 6.01195313 10.26820312 6 11 C3.60530271 11.50604924 1.20948283 12.00499517 -1.1875 12.5 C-1.86103516 12.64308594 -2.53457031 12.78617188 -3.22851562 12.93359375 C-6.87509793 13.68069842 -10.27648957 14.17352282 -14 14 C-11.19547298 12.48300584 -8.6142698 11.54691437 -5.5 10.875 C-4.7471875 10.70742187 -3.994375 10.53984375 -3.21875 10.3671875 C-1 10 -1 10 3 10 C3 7.36 3 4.72 3 2 C2.01 2 1.02 2 0 2 C0 1.34 0 0.68 0 0 Z " fill="#FE3B3B" transform="translate(98,100)"/>
<path d="M0 0 C-0.33 0.66 -0.66 1.32 -1 2 C-4.05416813 3.01805604 -6.17936961 3.13375515 -9.375 3.125 C-10.77878906 3.12886719 -10.77878906 3.12886719 -12.2109375 3.1328125 C-14.90729747 3.00441441 -17.37271509 2.60188709 -20 2 C-20 1.34 -20 0.68 -20 0 C-13.64662215 -1.69423409 -6.35337785 -1.69423409 0 0 Z " fill="#FEE5E5" transform="translate(141,98)"/>
<path d="M0 0 C0.66 0.66 1.32 1.32 2 2 C-3.9153226 3.82837244 -8.91205934 4.48896379 -15 3 C-15.99 2.34 -16.98 1.68 -18 1 C-12.1851395 -1.74590635 -6.18039706 -1.14725933 0 0 Z " fill="#FEE0E0" transform="translate(275,96)"/>
<path d="M0 0 C8.91 0 17.82 0 27 0 C27 0.66 27 1.32 27 2 C18.66491062 3.36083092 8.14858899 4.59273286 0 2 C0 1.34 0 0.68 0 0 Z " fill="#FE6666" transform="translate(50,16)"/>
<path d="M0 0 C-5.9153226 1.82837244 -10.91205934 2.48896379 -17 1 C-17.99 0.34 -18.98 -0.32 -20 -1 C-13.01861153 -3.15788371 -6.35639377 -4.23759585 0 0 Z " fill="#FEE4E4" transform="translate(233,12)"/>
<path d="M0 0 C8.91 0 17.82 0 27 0 C27 0.66 27 1.32 27 2 C20.86981894 2.95784079 15.18040266 2.97547621 9 2.5625 C8.12988281 2.51029297 7.25976562 2.45808594 6.36328125 2.40429688 C4.24178191 2.27607439 2.12082275 2.1389652 0 2 C0 1.34 0 0.68 0 0 Z " fill="#FE5F5F" transform="translate(50,105)"/>
<path d="M0 0 C0.66 0.66 1.32 1.32 2 2 C-3.9153226 3.82837244 -8.91205934 4.48896379 -15 3 C-15.99 2.34 -16.98 1.68 -18 1 C-11.81149141 -0.94823419 -6.39156879 -1.47314968 0 0 Z " fill="#FFE5E5" transform="translate(275,10)"/>
<path d="M0 0 C0.33 0 0.66 0 1 0 C1 2.97 1 5.94 1 9 C1.74765625 8.7834375 2.4953125 8.566875 3.265625 8.34375 C4.25046875 8.0653125 5.2353125 7.786875 6.25 7.5 C7.22453125 7.2215625 8.1990625 6.943125 9.203125 6.65625 C12 6 12 6 16 6 C16 5.34 16 4.68 16 4 C16.99 4 17.98 4 19 4 C18.67 4.99 18.34 5.98 18 7 C11.60142349 10.19928826 4.02759191 10.86441626 -3 10 C-5.3203125 8.98046875 -5.3203125 8.98046875 -7 8 C-3.86650268 6.95550089 -3.01031744 7.06576355 0 8 C0 5.36 0 2.72 0 0 Z " fill="#FE4F4F" transform="translate(130,103)"/>
<path d="M0 0 C0.94746094 -0.01417969 1.89492187 -0.02835937 2.87109375 -0.04296875 C5.60751644 0.19135482 7.22678123 0.79048617 9.5625 2.1875 C4.76430597 4.74653682 -0.13947223 4.57362745 -5.4375 4.1875 C-6.4275 3.8575 -7.4175 3.5275 -8.4375 3.1875 C-8.4375 2.5275 -8.4375 1.8675 -8.4375 1.1875 C-5.3864365 0.17047883 -3.19550939 0.02167917 0 0 Z " fill="#FFEAEA" transform="translate(178.4375,96.8125)"/>
<path d="M0 0 C1.65 0 3.3 0 5 0 C5.33 1.32 5.66 2.64 6 4 C5.01 3.979375 4.02 3.95875 3 3.9375 C-1.06568074 3.92918572 -4.97662176 4.43531533 -9 5 C-9 7.64 -9 10.28 -9 13 C-9.99 13.495 -9.99 13.495 -11 14 C-11 11.03 -11 8.06 -11 5 C-11.66 4.67 -12.32 4.34 -13 4 C-8.71 3.34 -4.42 2.68 0 2 C0 1.34 0 0.68 0 0 Z " fill="#FE1E1E" transform="translate(233,10)"/>
<path d="M0 0 C1.37671875 -0.00386719 1.37671875 -0.00386719 2.78125 -0.0078125 C5.45004454 0.12255965 7.89865153 0.53121394 10.5 1.125 C6.91465707 4.71034293 1.37566958 4.09394478 -3.5 4.125 C-6.05187374 3.70464143 -8.07596271 3.06155986 -10.5 2.125 C-10.5 1.795 -10.5 1.465 -10.5 1.125 C-6.94075986 0.31256475 -3.64872305 -0.01024922 0 0 Z " fill="#FFE4E4" transform="translate(86.5,9.875)"/>
<path d="M0 0 C1.39412109 -0.02126953 1.39412109 -0.02126953 2.81640625 -0.04296875 C5.51238389 0.19408443 7.13157875 0.81479864 9.4375 2.1875 C2.28875229 4.52178497 -3.37471969 4.99248744 -10.5625 2.1875 C-10.5625 1.8575 -10.5625 1.5275 -10.5625 1.1875 C-6.99432513 0.37802294 -3.65768144 0.02543589 0 0 Z " fill="#FFEDED" transform="translate(131.5625,7.8125)"/>
<path d="M0 0 C0 0.66 0 1.32 0 2 C-6.51244208 2.69508823 -12.5510809 3.31909709 -19 2 C-19 1.34 -19 0.68 -19 0 C-12.94932758 -1.76070375 -6.07663119 -1.62043498 0 0 Z " fill="#FFE6E6" transform="translate(96,100)"/>
<path d="M0 0 C-0.33 0.66 -0.66 1.32 -1 2 C-6.94640232 3.06350897 -13.10373922 3.47406519 -19 2 C-19 1.34 -19 0.68 -19 0 C-12.94932758 -1.76070375 -6.07663119 -1.62043498 0 0 Z " fill="#FEE6E6" transform="translate(49,100)"/>
<path d="M0 0 C-6.31660334 2.44050584 -12.365159 2.29766606 -19 1 C-19.33 0.34 -19.66 -0.32 -20 -1 C-13.41315598 -2.38670401 -6.01175041 -3.50454574 0 0 Z " fill="#FFEFEF" transform="translate(188,10)"/>
<path d="M0 0 C1.98 0 3.96 0 6 0 C6 0.66 6 1.32 6 2 C5.01 2 4.02 2 3 2 C3 4.97 3 7.94 3 11 C5.31 11.33 7.62 11.66 10 12 C10 12.33 10 12.66 10 13 C6.7 12.67 3.4 12.34 0 12 C0 8.04 0 4.08 0 0 Z " fill="#FD1919" transform="translate(114,98)"/>
<path d="M0 0 C-0.33 0.66 -0.66 1.32 -1 2 C-3.765625 2.484375 -3.765625 2.484375 -7.25 2.75 C-8.38953125 2.84796875 -9.5290625 2.9459375 -10.703125 3.046875 C-14.01336143 2.99981003 -16.05228849 2.44061089 -19 1 C-13.42833649 -2.71444234 -6.3580203 -1.08221622 0 0 Z " fill="#FEE8E8" transform="translate(50,11)"/>
<path d="M0 0 C0.98613281 0.20882813 1.97226562 0.41765625 2.98828125 0.6328125 C3.98214844 0.83648437 4.97601563 1.04015625 6 1.25 C6.75925781 1.41757813 7.51851562 1.58515625 8.30078125 1.7578125 C8.30078125 3.0778125 8.30078125 4.3978125 8.30078125 5.7578125 C7.31078125 5.7578125 6.32078125 5.7578125 5.30078125 5.7578125 C5.30078125 5.0978125 5.30078125 4.4378125 5.30078125 3.7578125 C4.00140625 4.28375 4.00140625 4.28375 2.67578125 4.8203125 C-0.94747117 5.8267715 -3.08455095 5.61844769 -6.69921875 4.7578125 C-6.69921875 4.4278125 -6.69921875 4.0978125 -6.69921875 3.7578125 C-3.23421875 3.2628125 -3.23421875 3.2628125 0.30078125 2.7578125 C-2.66921875 2.2628125 -2.66921875 2.2628125 -5.69921875 1.7578125 C-2.69921875 -0.2421875 -2.69921875 -0.2421875 0 0 Z " fill="#FE5F5F" transform="translate(48.69921875,9.2421875)"/>
<path d="M0 0 C0.33 0 0.66 0 1 0 C1 2.97 1 5.94 1 9 C-3.33066959 10.0826674 -5.03729855 9.70725583 -9.25 8.5625 C-10.32765625 8.27503906 -11.4053125 7.98757812 -12.515625 7.69140625 C-13.74539062 7.34916016 -13.74539062 7.34916016 -15 7 C-15 6.01 -15 5.02 -15 4 C-13.68 4 -12.36 4 -11 4 C-11 4.66 -11 5.32 -11 6 C-7.37 6.66 -3.74 7.32 0 8 C0 5.36 0 2.72 0 0 Z " fill="#FE5555" transform="translate(265,101)"/>
<path d="M0 0 C0.97582031 0.19464844 1.95164063 0.38929688 2.95703125 0.58984375 C4.06111328 0.82380859 4.06111328 0.82380859 5.1875 1.0625 C4.1975 1.5575 4.1975 1.5575 3.1875 2.0625 C3.1875 3.0525 3.1875 4.0425 3.1875 5.0625 C0.375 5.6875 0.375 5.6875 -2.8125 6.0625 C-3.8025 5.4025 -4.7925 4.7425 -5.8125 4.0625 C-4.1625 3.7325 -2.5125 3.4025 -0.8125 3.0625 C-4.1125 2.4025 -7.4125 1.7425 -10.8125 1.0625 C-10.8125 0.7325 -10.8125 0.4025 -10.8125 0.0625 C-6.8710998 -0.96788433 -3.97634848 -0.81443282 0 0 Z " fill="#FE5C5C" transform="translate(186.8125,6.9375)"/>
<path d="M0 0 C1.98 0 3.96 0 6 0 C6 0.66 6 1.32 6 2 C5.01 2 4.02 2 3 2 C3 4.97 3 7.94 3 11 C2.01 11 1.02 11 0 11 C0 7.37 0 3.74 0 0 Z " fill="#FE1111" transform="translate(114,9)"/>
<path d="M0 0 C4.38332057 0.82187261 8.67940177 1.90154282 13 3 C12.67 3.66 12.34 4.32 12 5 C11.93049459 6.54023996 11.91547643 8.08334988 11.9375 9.625 C11.94652344 10.44226563 11.95554687 11.25953125 11.96484375 12.1015625 C11.97644531 12.72804688 11.98804688 13.35453125 12 14 C11.67 14 11.34 14 11 14 C11 11.36 11 8.72 11 6 C9.35 6 7.7 6 6 6 C6 5.34 6 4.68 6 4 C3.03 3.505 3.03 3.505 0 3 C0 2.01 0 1.02 0 0 Z " fill="#FE6767" transform="translate(269,93)"/>
<path d="M0 0 C1.66611905 -0.042721 3.33382885 -0.04063832 5 0 C6 1 6 1 6.09765625 3.28515625 C6.08605469 4.20167969 6.07445312 5.11820313 6.0625 6.0625 C6.05347656 6.98160156 6.04445312 7.90070312 6.03515625 8.84765625 C6.02355469 9.55792969 6.01195312 10.26820312 6 11 C5.01 11 4.02 11 3 11 C3 8.03 3 5.06 3 2 C2.01 2 1.02 2 0 2 C0 1.34 0 0.68 0 0 Z " fill="#FE1515" transform="translate(190,9)"/>
<path d="M0 0 C1.98 0 3.96 0 6 0 C6.33 0.66 6.66 1.32 7 2 C5.68 2 4.36 2 3 2 C3 4.64 3 7.28 3 10 C2.01 10 1.02 10 0 10 C0 6.7 0 3.4 0 0 Z " fill="#FE1414" transform="translate(22,11)"/>
<path d="M0 0 C1.98 0 3.96 0 6 0 C6 3.63 6 7.26 6 11 C4.68 10.67 3.36 10.34 2 10 C2.33 7.03 2.66 4.06 3 1 C2.01 0.67 1.02 0.34 0 0 Z " fill="#FE1919" transform="translate(278,11)"/>
<path d="M0 0 C2.97 0.495 2.97 0.495 6 1 C5.67 1.66 5.34 2.32 5 3 C4.93049459 4.54023996 4.91547643 6.08334988 4.9375 7.625 C4.94652344 8.44226562 4.95554687 9.25953125 4.96484375 10.1015625 C4.97644531 10.72804688 4.98804688 11.35453125 5 12 C4.67 12 4.34 12 4 12 C4 9.36 4 6.72 4 4 C0.7 4.66 -2.6 5.32 -6 6 C-6.33 5.34 -6.66 4.68 -7 4 C-6.030625 3.71125 -5.06125 3.4225 -4.0625 3.125 C-0.89335797 2.35785318 -0.89335797 2.35785318 0 0 Z " fill="#FE5858" transform="translate(276,9)"/>
<path d="M0 0 C1.98 0 3.96 0 6 0 C5.67 0.66 5.34 1.32 5 2 C4.01 2 3.02 2 2 2 C2.33 5.3 2.66 8.6 3 12 C2.01 12 1.02 12 0 12 C0 8.04 0 4.08 0 0 Z " fill="#FE1111" transform="translate(207,96)"/>
<path d="M0 0 C0.33 0 0.66 0 1 0 C1 2.97 1 5.94 1 9 C-2.86790003 9.96697501 -4.08162002 9.979595 -7.75 9.0625 C-8.54921875 8.86785156 -9.3484375 8.67320313 -10.171875 8.47265625 C-10.77515625 8.31667969 -11.3784375 8.16070312 -12 8 C-11.67 7.34 -11.34 6.68 -11 6 C-7.37 6.66 -3.74 7.32 0 8 C0 5.36 0 2.72 0 0 Z " fill="#FD6464" transform="translate(221,101)"/>
<path d="M0 0 C1.66611905 -0.042721 3.33382885 -0.04063832 5 0 C6 1 6 1 6.09765625 3.28515625 C6.08605469 4.20167969 6.07445312 5.11820312 6.0625 6.0625 C6.05347656 6.98160156 6.04445312 7.90070313 6.03515625 8.84765625 C6.02355469 9.55792969 6.01195312 10.26820312 6 11 C5.34 11 4.68 11 4 11 C4 8.03 4 5.06 4 2 C2.68 2 1.36 2 0 2 C0 1.34 0 0.68 0 0 Z " fill="#FE1414" transform="translate(190,98)"/>
<path d="M0 0 C0.66 0 1.32 0 2 0 C2 2.97 2 5.94 2 9 C2.66 9.33 3.32 9.66 4 10 C2.35 10.33 0.7 10.66 -1 11 C-1.33 10.34 -1.66 9.68 -2 9 C-1.34 9 -0.68 9 0 9 C0 6.03 0 3.06 0 0 Z " fill="#FE1616" transform="translate(266,101)"/>
<path d="M0 0 C0.99 0 1.98 0 3 0 C2.67 1.32 2.34 2.64 2 4 C-1.63 4.66 -5.26 5.32 -9 6 C-9.33 5.34 -9.66 4.68 -10 4 C-6.52674819 2.8422494 -3.63932552 2.93133348 0 3 C0 2.01 0 1.02 0 0 Z " fill="#FE3E3E" transform="translate(146,17)"/>
<path d="M0 0 C1.98 0 3.96 0 6 0 C6 3.3 6 6.6 6 10 C5.34 10 4.68 10 4 10 C4 7.36 4 4.72 4 2 C2.68 2 1.36 2 0 2 C0 1.34 0 0.68 0 0 Z " fill="#FE1313" transform="translate(98,11)"/>
<path d="M0 0 C1.66611905 -0.042721 3.33382885 -0.04063832 5 0 C6 1 6 1 6.09765625 3.06640625 C6.08605469 3.89011719 6.07445313 4.71382813 6.0625 5.5625 C6.05347656 6.38878906 6.04445313 7.21507813 6.03515625 8.06640625 C6.01775391 9.02353516 6.01775391 9.02353516 6 10 C5.34 10 4.68 10 4 10 C4 7.36 4 4.72 4 2 C2.68 2 1.36 2 0 2 C0 1.34 0 0.68 0 0 Z " fill="#FE0F0F" transform="translate(98,100)"/>
<path d="M0 0 C0.33 0 0.66 0 1 0 C2.23839599 6.65637843 2.09139136 13.2471936 2 20 C1.67 20 1.34 20 1 20 C0.93941406 19.39671875 0.87882812 18.7934375 0.81640625 18.171875 C0.73261719 17.37265625 0.64882813 16.5734375 0.5625 15.75 C0.48128906 14.96109375 0.40007813 14.1721875 0.31640625 13.359375 C0.05703304 11.02962604 0.05703304 11.02962604 -0.5625 8.9375 C-1.25409492 5.8747225 -0.52901451 3.05652829 0 0 Z " fill="#AFAFAF" transform="translate(37,42)"/>
<path d="M0 0 C1.20220203 3.53094302 0.79532349 6.12898982 0.0625 9.75 C-0.13214844 10.73484375 -0.32679687 11.7196875 -0.52734375 12.734375 C-0.68332031 13.48203125 -0.83929688 14.2296875 -1 15 C-1.99 14.01 -2.98 13.02 -4 12 C-2.66666667 8 -1.33333333 4 0 0 Z " fill="#BDBDBD" transform="translate(62,43)"/>
<path d="M0 0 C0.33 0 0.66 0 1 0 C1 2.97 1 5.94 1 9 C-2.69541586 9.95024979 -5.30458414 9.95024979 -9 9 C-8.34 8.34 -7.68 7.68 -7 7 C-3.375 7.375 -3.375 7.375 0 8 C0 5.36 0 2.72 0 0 Z " fill="#FE7575" transform="translate(221,15)"/>
<path d="M0 0 C1.32 0 2.64 0 4 0 C4 0.66 4 1.32 4 2 C6.97 2.33 9.94 2.66 13 3 C12.67 3.66 12.34 4.32 12 5 C8.37 4.34 4.74 3.68 1 3 C0.67 2.01 0.34 1.02 0 0 Z " fill="#FE3C3C" transform="translate(69,108)"/>
<path d="M0 0 C1.32 0 2.64 0 4 0 C4 0.66 4 1.32 4 2 C6.97 2.33 9.94 2.66 13 3 C12.67 3.66 12.34 4.32 12 5 C8.37 4.34 4.74 3.68 1 3 C0.67 2.01 0.34 1.02 0 0 Z " fill="#FE3B3B" transform="translate(69,19)"/>
<path d="M0 0 C1.32 0 2.64 0 4 0 C4.33 0.66 4.66 1.32 5 2 C7.52733235 2.65555119 7.52733235 2.65555119 10 3 C9.67 3.66 9.34 4.32 9 5 C4.545 4.01 4.545 4.01 0 3 C0 2.01 0 1.02 0 0 Z " fill="#FE4747" transform="translate(250,19)"/>
<path d="M0 0 C0.33 0.99 0.66 1.98 1 3 C1.99 3 2.98 3 4 3 C4 2.34 4 1.68 4 1 C6.97 1.495 6.97 1.495 10 2 C9.67 2.99 9.34 3.98 9 5 C6.03 4.67 3.06 4.34 0 4 C0 2.68 0 1.36 0 0 Z " fill="#FEE2E2" transform="translate(68,101)"/>
<path d="M0 0 C3.63 0 7.26 0 11 0 C9.02 0.99 9.02 0.99 7 2 C6.18129815 5.56206661 6.18129815 5.56206661 6 9 C5.67 9 5.34 9 5 9 C5 6.69 5 4.38 5 2 C3.35 1.67 1.7 1.34 0 1 C0 0.67 0 0.34 0 0 Z " fill="#FE1A1A" transform="translate(173,12)"/>
<path d="M0 0 C1.98 0 3.96 0 6 0 C6.33 1.32 6.66 2.64 7 4 C5.68 4 4.36 4 3 4 C3 3.34 3 2.68 3 2 C2.01 2 1.02 2 0 2 C0 1.34 0 0.68 0 0 Z " fill="#FE2F2F" transform="translate(51,100)"/>
<path d="M0 0 C0 0.66 0 1.32 0 2 C0.99 2.33 1.98 2.66 3 3 C0.69 3 -1.62 3 -4 3 C-4.33 3.66 -4.66 4.32 -5 5 C-5 4.01 -5 3.02 -5 2 C-5.66 1.67 -6.32 1.34 -7 1 C-2.25 0 -2.25 0 0 0 Z " fill="#FFE2E2" transform="translate(54,102)"/>
<path d="M0 0 C2.97 0.495 2.97 0.495 6 1 C5.34 2.32 4.68 3.64 4 5 C4 4.34 4 3.68 4 3 C1.69 3 -0.62 3 -3 3 C-2.01 2.67 -1.02 2.34 0 2 C0 1.34 0 0.68 0 0 Z " fill="#FEDCDC" transform="translate(164,11)"/>
<path d="M0 0 C0 0.66 0 1.32 0 2 C0.99 2.33 1.98 2.66 3 3 C0.69 3 -1.62 3 -4 3 C-4.33 3.66 -4.66 4.32 -5 5 C-5 4.01 -5 3.02 -5 2 C-5.66 1.67 -6.32 1.34 -7 1 C-2.25 0 -2.25 0 0 0 Z " fill="#FFDDDD" transform="translate(146,11)"/>
<path d="M0 0 C1.65 0 3.3 0 5 0 C5 0.66 5 1.32 5 2 C4.34 2 3.68 2 3 2 C3 2.66 3 3.32 3 4 C1.68 4 0.36 4 -1 4 C-0.67 2.68 -0.34 1.36 0 0 Z " fill="#FE2F2F" transform="translate(70,11)"/>
<path d="M0 0 C1.98 0 3.96 0 6 0 C6 0.66 6 1.32 6 2 C5.01 2 4.02 2 3 2 C3 2.66 3 3.32 3 4 C2.01 4 1.02 4 0 4 C0 2.68 0 1.36 0 0 Z " fill="#FE1818" transform="translate(161,98)"/>
<path d="M0 0 C1.98 0 3.96 0 6 0 C6 1.32 6 2.64 6 4 C5.01 4 4.02 4 3 4 C3 3.34 3 2.68 3 2 C2.01 2 1.02 2 0 2 C0 1.34 0 0.68 0 0 Z " fill="#FE1F1F" transform="translate(51,11)"/>
<path d="M0 0 C1.98 0 3.96 0 6 0 C6 0.66 6 1.32 6 2 C5.01 2 4.02 2 3 2 C3 2.66 3 3.32 3 4 C2.01 4 1.02 4 0 4 C0 2.68 0 1.36 0 0 Z " fill="#FE1818" transform="translate(161,9)"/>
<path d="M0 0 C1.98 0 3.96 0 6 0 C6 1.32 6 2.64 6 4 C5.01 4 4.02 4 3 4 C3 3.34 3 2.68 3 2 C2.01 2 1.02 2 0 2 C0 1.34 0 0.68 0 0 Z " fill="#FE1313" transform="translate(143,9)"/>
<path d="M0 0 C0.99 0 1.98 0 3 0 C2.67 0.99 2.34 1.98 2 3 C-2.455 3.495 -2.455 3.495 -7 4 C-4 2 -4 2 0 2 C0 1.34 0 0.68 0 0 Z " fill="#FE1D1D" transform="translate(146,107)"/>
<path d="M0 0 C1.65 0 3.3 0 5 0 C5 0.66 5 1.32 5 2 C4.01 2 3.02 2 2 2 C2 2.66 2 3.32 2 4 C1.01 4 0.02 4 -1 4 C-0.67 2.68 -0.34 1.36 0 0 Z " fill="#FE2121" transform="translate(70,100)"/>
<path d="M0 0 C1.65 0 3.3 0 5 0 C5.33 1.32 5.66 2.64 6 4 C5.01 4 4.02 4 3 4 C3 3.34 3 2.68 3 2 C2.01 2 1.02 2 0 2 C0 1.34 0 0.68 0 0 Z " fill="#FE0C0C" transform="translate(143,98)"/>
<path d="M0 0 C0.33 0.99 0.66 1.98 1 3 C-5.625 4.25 -5.625 4.25 -9 2 C-2.25 0 -2.25 0 0 0 Z " fill="#FE5B5B" transform="translate(143,9)"/>
</svg>
